<?xml version="1.0" encoding="UTF-8" standalone="no"?>
<svg
   xmlns:dc="http://purl.org/dc/elements/1.1/"
   xmlns:cc="http://creativecommons.org/ns#"
   xmlns:rdf="http://www.w3.org/1999/02/22-rdf-syntax-ns#"
   xmlns:svg="http://www.w3.org/2000/svg"
   xmlns="http://www.w3.org/2000/svg"
   xmlns:sodipodi="http://sodipodi.sourceforge.net/DTD/sodipodi-0.dtd"
   xmlns:inkscape="http://www.inkscape.org/namespaces/inkscape"
   version="1.0"
   width="200"
   height="60"
   viewBox="0 0 150.00001 45"
   preserveAspectRatio="xMidYMid meet"
   id="svg6"
   sodipodi:docname="logo-white.svg"
   inkscape:version="1.0.2 (e86c870879, 2021-01-15, custom)">
  <metadata
     id="metadata12">
    <rdf:RDF>
      <cc:Work
         rdf:about="">
        <dc:format>image/svg+xml</dc:format>
        <dc:type
           rdf:resource="http://purl.org/dc/dcmitype/StillImage" />
        <dc:title></dc:title>
      </cc:Work>
    </rdf:RDF>
  </metadata>
  <defs
     id="defs10" />
  <sodipodi:namedview
     pagecolor="#ffffff"
     bordercolor="#666666"
     borderopacity="1"
     objecttolerance="10"
     gridtolerance="10"
     guidetolerance="10"
     inkscape:pageopacity="0"
     inkscape:pageshadow="2"
     inkscape:window-width="1920"
     inkscape:window-height="1001"
     id="namedview8"
     showgrid="false"
     units="px"
     inkscape:zoom="2.8036559"
     inkscape:cx="185.71736"
     inkscape:cy="53.551817"
     inkscape:window-x="-9"
     inkscape:window-y="-9"
     inkscape:window-maximized="1"
     inkscape:current-layer="svg6"
     inkscape:document-rotation="0">
    <inkscape:grid
       type="xygrid"
       id="grid837" />
  </sodipodi:namedview>
  <g
     aria-label="OXVSYS"
     id="text841"
     style="font-style:normal;font-weight:normal;font-size:27.5509px;line-height:1.25;font-family:sans-serif;fill:#ffffff;fill-opacity:1;stroke:none;stroke-width:0.688774" />
  <g
     id="g889"
     transform="translate(0,-4.7622899)"
     style="fill:#ffffff">
    <g
       transform="matrix(0.01070655,0,0,-0.01070655,2.2596046,43.825258)"
       fill="#000000"
       stroke="none"
       id="g4"
       style="fill:#ffffff;fill-opacity:1">
      <path
         d="M 194,2701 2,2311 124,2267 c 66,-24 495,-178 953,-342 793,-284 831,-299 823,-319 -4,-11 -25,-58 -46,-103 l -39,-81 -105,38 C 1264,1624 225,1998 222,1996 217,1990 1315,7 1326,3 c 8,-3 329,547 350,601 6,14 -66,91 -367,392 -206,206 -371,374 -368,374 3,0 226,-81 494,-180 269,-99 492,-177 496,-173 21,23 389,757 382,763 -4,4 -88,32 -185,61 -98,29 -178,55 -178,58 0,3 155,100 344,215 l 344,208 -42,92 c -24,50 -103,219 -176,376 -73,157 -136,289 -140,293 -4,4 -12,-81 -19,-190 -6,-109 -14,-214 -17,-233 l -5,-35 -448,-138 c -247,-75 -455,-137 -464,-137 -15,0 -856,253 -892,268 -19,8 -21,26 -35,241 l -15,232 z"
         id="path2"
         style="fill:#ffffff;fill-opacity:1" />
    </g>
    <path
       d="m 43.81683,20.10106 q 0,-3.712914 2.798139,-6.363074 2.798138,-2.65016 6.726294,-2.65016 3.833987,0 6.60522,2.677065 2.771233,2.663612 2.771233,6.336169 0,3.887798 -2.744328,6.578315 -2.730875,2.677065 -6.712841,2.677065 -3.928156,0 -6.685936,-2.70397 Q 43.81683,23.9485 43.81683,20.10106 Z m 16.412157,0.107621 q 0,-2.838496 -2.044793,-4.775669 -2.044793,-1.950625 -5.031268,-1.950625 -2.838496,0 -4.869836,1.97753 -2.017889,1.977531 -2.017889,4.748764 0,2.81159 2.071699,4.762216 2.085151,1.937172 5.098531,1.937172 2.771233,0 4.775668,-1.97753 2.017888,-1.990983 2.017888,-4.721858 z"
       style="font-style:normal;font-variant:normal;font-weight:normal;font-stretch:normal;font-size:27.5509px;line-height:1.25;font-family:'Tw Cen MT';-inkscape-font-specification:'Tw Cen MT';fill:#ffffff;fill-opacity:1;stroke:none;stroke-width:0.688774"
       id="path902" />
    <path
       d="m 64.560721,11.639382 h 2.582897 l 3.833988,6.255453 3.780177,-6.255453 h 2.609802 l -5.098531,8.380962 5.246509,8.757635 h -2.596349 l -3.941608,-6.578315 -3.995419,6.578315 h -2.609802 l 5.286867,-8.757635 z"
       style="font-style:normal;font-variant:normal;font-weight:normal;font-stretch:normal;font-size:27.5509px;line-height:1.25;font-family:'Tw Cen MT';-inkscape-font-specification:'Tw Cen MT';fill:#ffffff;fill-opacity:1;stroke:none;stroke-width:0.688774"
       id="path904" />
    <path
       d="m 78.995346,11.666287 h 2.475276 l 5.367582,12.120782 5.407936,-12.120782 h 2.50219 L 86.811299,29.35644 Z"
       style="font-style:normal;font-variant:normal;font-weight:normal;font-stretch:normal;font-size:27.5509px;line-height:1.25;font-family:'Tw Cen MT';-inkscape-font-specification:'Tw Cen MT';fill:#ffffff;fill-opacity:1;stroke:none;stroke-width:0.688774"
       id="path906" />
    <path
       d="m 107.52829,13.536197 -1.89682,1.520142 q -0.75334,-0.78025 -1.37216,-1.156922 -0.60537,-0.390125 -1.76229,-0.390125 -1.26454,0 -2.05825,0.578461 -0.78025,0.565009 -0.78025,1.466332 0,0.78025 0.68609,1.385617 0.68608,0.591914 2.34075,1.304901 1.65466,0.699534 2.56944,1.318353 0.92823,0.605367 1.52014,1.345259 0.59192,0.739892 0.87442,1.5605 0.29596,0.820608 0.29596,1.735384 0,2.138962 -1.5605,3.645651 -1.54705,1.50669 -3.75327,1.50669 -2.15242,0 -3.80709,-1.170375 -1.64121,-1.183828 -2.52908,-3.538031 l 2.34075,-0.659176 q 1.27799,2.892306 3.9147,2.892306 1.278,0 2.12551,-0.766797 0.84751,-0.766798 0.84751,-1.937173 0,-0.699535 -0.44393,-1.399069 -0.44394,-0.712987 -1.10312,-1.170375 -0.65917,-0.457388 -2.11205,-1.03585 -1.43943,-0.591913 -2.21968,-1.076207 -0.7668,-0.497745 -1.33181,-1.170375 -0.565,-0.686082 -0.83406,-1.358711 -0.2556,-0.672629 -0.2556,-1.439427 0,-1.843004 1.47979,-3.134453 1.47978,-1.304901 3.59184,-1.304901 1.39907,0 2.8385,0.605367 1.43942,0.605366 2.39456,1.843004 z"
       style="font-style:normal;font-variant:normal;font-weight:normal;font-stretch:normal;font-size:27.5509px;line-height:1.25;font-family:'Tw Cen MT';-inkscape-font-specification:'Tw Cen MT';fill:#ffffff;fill-opacity:1;stroke:none;stroke-width:0.688774"
       id="path908" />
    <path
       d="m 109.81522,11.639382 h 2.59635 l 4.21066,6.887725 4.15685,-6.887725 h 2.59635 l -5.62318,9.282286 v 7.856311 h -2.34075 v -7.829406 z"
       style="font-style:normal;font-variant:normal;font-weight:normal;font-stretch:normal;font-size:27.5509px;line-height:1.25;font-family:'Tw Cen MT';-inkscape-font-specification:'Tw Cen MT';fill:#ffffff;fill-opacity:1;stroke:none;stroke-width:0.688774"
       id="path910" />
    <path
       d="m 136.2361,13.536197 -1.89681,1.520142 q -0.75335,-0.78025 -1.37216,-1.156922 -0.60537,-0.390125 -1.76229,-0.390125 -1.26455,0 -2.05825,0.578461 -0.78025,0.565009 -0.78025,1.466332 0,0.78025 0.68608,1.385617 0.68608,0.591914 2.34075,1.304901 1.65467,0.699534 2.56945,1.318353 0.92823,0.605367 1.52014,1.345259 0.59191,0.739892 0.87442,1.5605 0.29595,0.820608 0.29595,1.735384 0,2.138962 -1.5605,3.645651 -1.54704,1.50669 -3.75327,1.50669 -2.15241,0 -3.80708,-1.170375 -1.64122,-1.183828 -2.52909,-3.538031 l 2.34075,-0.659176 q 1.278,2.892306 3.91471,2.892306 1.27799,0 2.12551,-0.766797 0.84751,-0.766798 0.84751,-1.937173 0,-0.699535 -0.44394,-1.399069 -0.44393,-0.712987 -1.10311,-1.170375 -0.65918,-0.457388 -2.11206,-1.03585 -1.43942,-0.591913 -2.21967,-1.076207 -0.7668,-0.497745 -1.33181,-1.170375 -0.56501,-0.686082 -0.83406,-1.358711 -0.2556,-0.672629 -0.2556,-1.439427 0,-1.843004 1.47979,-3.134453 1.47978,-1.304901 3.59184,-1.304901 1.39907,0 2.83849,0.605367 1.43943,0.605366 2.39456,1.843004 z"
       style="font-style:normal;font-variant:normal;font-weight:normal;font-stretch:normal;font-size:27.5509px;line-height:1.25;font-family:'Tw Cen MT';-inkscape-font-specification:'Tw Cen MT';fill:#ffffff;fill-opacity:1;stroke:none;stroke-width:0.688774"
       id="path912" />
    <g
       aria-label="automation and more"
       id="text841-2"
       style="font-style:normal;font-weight:normal;font-size:12.2646px;line-height:1.25;font-family:sans-serif;fill:#ffffff;fill-opacity:1;stroke:none;stroke-width:0.306617"
       transform="translate(-12)">
      <path
         d="m 60.602404,37.679566 h 1.042012 v 4.940574 h -1.042012 v -0.982126 q -0.760549,1.119863 -1.886401,1.119863 -0.976137,0 -1.670812,-0.766537 -0.688686,-0.766538 -0.688686,-1.862447 0,-1.036023 0.694674,-1.808549 0.700664,-0.778515 1.64087,-0.778515 0.580891,0 1.101897,0.317395 0.521006,0.317394 0.808458,0.826423 z m 0.137737,2.485259 q 0,-0.676709 -0.485074,-1.155795 -0.485075,-0.485075 -1.161784,-0.485075 -0.658743,0 -1.149806,0.479086 -0.491063,0.479086 -0.491063,1.125852 0,0.700663 0.479086,1.191726 0.479086,0.491064 1.161783,0.491064 0.676709,0 1.161784,-0.485075 0.485074,-0.491063 0.485074,-1.161783 z"
         style="font-style:normal;font-variant:normal;font-weight:normal;font-stretch:normal;font-family:'Tw Cen MT';-inkscape-font-specification:'Tw Cen MT';fill:#ffffff;fill-opacity:1;stroke-width:0.306617"
         id="path867" />
      <path
         d="m 63.027777,37.679566 h 1.042011 v 2.784687 q 0,1.287544 1.131841,1.287544 0.50304,0 0.79648,-0.341349 0.29344,-0.347337 0.29344,-0.946195 v -2.784687 h 1.030035 v 2.952367 q 0,0.928229 -0.604846,1.527087 -0.604846,0.598857 -1.545052,0.598857 -0.958172,0 -1.551041,-0.598857 -0.592868,-0.598858 -0.592868,-1.563018 z"
         style="font-style:normal;font-variant:normal;font-weight:normal;font-stretch:normal;font-family:'Tw Cen MT';-inkscape-font-specification:'Tw Cen MT';fill:#ffffff;fill-opacity:1;stroke-width:0.306617"
         id="path869" />
      <path
         d="m 68.914545,36.242309 h 1.042012 v 1.437257 h 1.030034 v 0.952184 h -1.030034 v 3.98839 H 68.914545 V 38.63175 H 68.09411 v -0.964161 h 0.820435 z"
         style="font-style:normal;font-variant:normal;font-weight:normal;font-stretch:normal;font-family:'Tw Cen MT';-inkscape-font-specification:'Tw Cen MT';fill:#ffffff;fill-opacity:1;stroke-width:0.306617"
         id="path871" />
      <path
         d="m 71.627369,40.128893 q 0,-1.012069 0.796481,-1.796572 0.802468,-0.790492 1.838492,-0.790492 1.065966,0 1.862446,0.778515 0.796481,0.772526 0.796481,1.808549 0,1.042012 -0.784504,1.838492 -0.778514,0.790492 -1.80256,0.790492 -1.095909,0 -1.904367,-0.784503 -0.802469,-0.784503 -0.802469,-1.844481 z m 4.287819,0 q 0,-0.6288 -0.479086,-1.08992 -0.479086,-0.467109 -1.137829,-0.467109 -0.676709,0 -1.167772,0.473097 -0.485074,0.467109 -0.485074,1.119864 0,0.622811 0.491063,1.08992 0.497052,0.467109 1.161783,0.467109 0.646766,0 1.131841,-0.479086 0.485074,-0.479086 0.485074,-1.113875 z"
         style="font-style:normal;font-variant:normal;font-weight:normal;font-stretch:normal;font-family:'Tw Cen MT';-inkscape-font-specification:'Tw Cen MT';fill:#ffffff;fill-opacity:1;stroke-width:0.306617"
         id="path873" />
      <path
         d="m 77.939327,42.62014 v -4.940574 h 1.030035 v 0.760549 q 0.365303,-0.467108 0.694674,-0.682697 0.33536,-0.215589 0.766538,-0.215589 0.562926,0 0.88032,0.245532 0.323383,0.245531 0.54496,0.784503 0.389258,-0.538972 0.748572,-0.784503 0.365303,-0.245532 0.844389,-0.245532 0.58688,0 1.012069,0.443155 0.425189,0.437166 0.425189,1.042012 v 3.593144 h -1.036024 v -3.323659 q 0,-0.820434 -0.808457,-0.820434 -0.46112,0 -0.784503,0.4192 -0.317395,0.4192 -0.317395,1.036023 v 2.68887 h -1.042012 v -3.185921 q 0,-0.970149 -0.79648,-0.970149 -0.473097,0 -0.802469,0.395246 -0.329371,0.395245 -0.329371,0.976137 v 2.784687 z"
         style="font-style:normal;font-variant:normal;font-weight:normal;font-stretch:normal;font-family:'Tw Cen MT';-inkscape-font-specification:'Tw Cen MT';fill:#ffffff;fill-opacity:1;stroke-width:0.306617"
         id="path875" />
      <path
         d="m 90.377594,37.679566 h 1.042012 v 4.940574 h -1.042012 v -0.982126 q -0.760549,1.119863 -1.886401,1.119863 -0.976137,0 -1.670812,-0.766537 -0.688686,-0.766538 -0.688686,-1.862447 0,-1.036023 0.694675,-1.808549 0.700663,-0.778515 1.640869,-0.778515 0.580892,0 1.101898,0.317395 0.521006,0.317394 0.808457,0.826423 z m 0.137737,2.485259 q 0,-0.676709 -0.485074,-1.155795 -0.485075,-0.485075 -1.161783,-0.485075 -0.658744,0 -1.149807,0.479086 -0.491063,0.479086 -0.491063,1.125852 0,0.700663 0.479086,1.191726 0.479086,0.491064 1.161784,0.491064 0.676708,0 1.161783,-0.485075 0.485074,-0.491063 0.485074,-1.161783 z"
         style="font-style:normal;font-variant:normal;font-weight:normal;font-stretch:normal;font-family:'Tw Cen MT';-inkscape-font-specification:'Tw Cen MT';fill:#ffffff;fill-opacity:1;stroke-width:0.306617"
         id="path877" />
      <path
         d="m 93.317983,36.242309 h 1.042012 v 1.437257 h 1.030035 v 0.952184 h -1.030035 v 3.98839 h -1.042012 v -3.98839 h -0.820434 v -0.964161 h 0.820434 z"
         style="font-style:normal;font-variant:normal;font-weight:normal;font-stretch:normal;font-family:'Tw Cen MT';-inkscape-font-specification:'Tw Cen MT';fill:#ffffff;fill-opacity:1;stroke-width:0.306617"
         id="path879" />
      <path
         d="m 96.114647,36.056663 q 0,-0.323383 0.239543,-0.556938 0.239543,-0.239543 0.568914,-0.239543 0.323383,0 0.556938,0.239543 0.239543,0.233555 0.239543,0.556938 0,0.329371 -0.239543,0.562926 -0.233555,0.233554 -0.556938,0.233554 -0.329371,0 -0.568914,-0.233554 -0.239543,-0.233555 -0.239543,-0.562926 z m 0.29344,1.622903 h 1.030035 v 4.940574 h -1.030035 z"
         style="font-style:normal;font-variant:normal;font-weight:normal;font-stretch:normal;font-family:'Tw Cen MT';-inkscape-font-specification:'Tw Cen MT';fill:#ffffff;fill-opacity:1;stroke-width:0.306617"
         id="path881" />
      <path
         d="m 98.71968,40.128893 q 0,-1.012069 0.79648,-1.796572 0.80247,-0.790492 1.83849,-0.790492 1.06597,0 1.86245,0.778515 0.79648,0.772526 0.79648,1.808549 0,1.042012 -0.7845,1.838492 -0.77852,0.790492 -1.80256,0.790492 -1.09591,0 -1.904371,-0.784503 -0.802469,-0.784503 -0.802469,-1.844481 z m 4.28782,0 q 0,-0.6288 -0.47909,-1.08992 -0.47908,-0.467109 -1.13783,-0.467109 -0.6767,0 -1.16777,0.473097 -0.485072,0.467109 -0.485072,1.119864 0,0.622811 0.491062,1.08992 0.49705,0.467109 1.16178,0.467109 0.64677,0 1.13184,-0.479086 0.48508,-0.479086 0.48508,-1.113875 z"
         style="font-style:normal;font-variant:normal;font-weight:normal;font-stretch:normal;font-family:'Tw Cen MT';-inkscape-font-specification:'Tw Cen MT';fill:#ffffff;fill-opacity:1;stroke-width:0.306617"
         id="path883" />
      <path
         d="m 104.93582,42.62014 v -4.940574 h 1.01806 v 0.820435 q 0.44914,-0.497052 0.81444,-0.724617 0.3653,-0.233555 0.81445,-0.233555 0.67072,0 1.14382,0.443155 0.47908,0.443154 0.47908,1.065966 v 3.56919 h -1.04201 v -3.263773 q 0,-0.401234 -0.2635,-0.664732 -0.25751,-0.263497 -0.65874,-0.263497 -0.52101,0 -0.89829,0.443155 -0.37728,0.437166 -0.37728,1.059977 v 2.68887 z"
         style="font-style:normal;font-variant:normal;font-weight:normal;font-stretch:normal;font-family:'Tw Cen MT';-inkscape-font-specification:'Tw Cen MT';fill:#ffffff;fill-opacity:1;stroke-width:0.306617"
         id="path885" />
      <path
         d="m 118.04481,37.679566 h 1.04201 v 4.940574 h -1.04201 v -0.982126 q -0.76055,1.119863 -1.88641,1.119863 -0.97613,0 -1.67081,-0.766537 -0.68868,-0.766538 -0.68868,-1.862447 0,-1.036023 0.69467,-1.808549 0.70066,-0.778515 1.64087,-0.778515 0.58089,0 1.1019,0.317395 0.521,0.317394 0.80846,0.826423 z m 0.13773,2.485259 q 0,-0.676709 -0.48507,-1.155795 -0.48508,-0.485075 -1.16178,-0.485075 -0.65875,0 -1.14981,0.479086 -0.49106,0.479086 -0.49106,1.125852 0,0.700663 0.47908,1.191726 0.47909,0.491064 1.16179,0.491064 0.6767,0 1.16178,-0.485075 0.48507,-0.491063 0.48507,-1.161783 z"
         style="font-style:normal;font-variant:normal;font-weight:normal;font-stretch:normal;font-family:'Tw Cen MT';-inkscape-font-specification:'Tw Cen MT';fill:#ffffff;fill-opacity:1;stroke-width:0.306617"
         id="path887" />
      <path
         d="m 120.45821,42.62014 v -4.940574 h 1.01805 v 0.820435 q 0.44915,-0.497052 0.81445,-0.724617 0.3653,-0.233555 0.81445,-0.233555 0.67072,0 1.14381,0.443155 0.47909,0.443154 0.47909,1.065966 v 3.56919 h -1.04201 v -3.263773 q 0,-0.401234 -0.2635,-0.664732 -0.25751,-0.263497 -0.65874,-0.263497 -0.52101,0 -0.89829,0.443155 -0.37728,0.437166 -0.37728,1.059977 v 2.68887 z"
         style="font-style:normal;font-variant:normal;font-weight:normal;font-stretch:normal;font-family:'Tw Cen MT';-inkscape-font-specification:'Tw Cen MT';fill:#ffffff;fill-opacity:1;stroke-width:0.306617"
         id="path889" />
      <path
         d="m 130.1597,34.846971 h 1.03003 v 7.773169 h -1.01806 v -1.030035 q -0.73659,1.167772 -1.92832,1.167772 -0.96416,0 -1.65285,-0.772526 -0.68868,-0.772526 -0.68868,-1.856458 0,-1.059977 0.70066,-1.820526 0.70067,-0.766538 1.67081,-0.766538 0.5809,0 1.08394,0.323383 0.50304,0.323383 0.80247,0.844389 z m 0.11977,5.293899 q 0,-0.664731 -0.48508,-1.149806 -0.48507,-0.491063 -1.15579,-0.491063 -0.69468,0 -1.17975,0.479086 -0.47909,0.473097 -0.47909,1.161783 0,0.658744 0.49107,1.155795 0.49106,0.491063 1.14381,0.491063 0.69468,0 1.17975,-0.479086 0.48508,-0.479086 0.48508,-1.167772 z"
         style="font-style:normal;font-variant:normal;font-weight:normal;font-stretch:normal;font-family:'Tw Cen MT';-inkscape-font-specification:'Tw Cen MT';fill:#ffffff;fill-opacity:1;stroke-width:0.306617"
         id="path891" />
      <path
         d="m 136.0764,42.62014 v -4.940574 h 1.03004 v 0.760549 q 0.3653,-0.467108 0.69467,-0.682697 0.33536,-0.215589 0.76654,-0.215589 0.56292,0 0.88032,0.245532 0.32338,0.245531 0.54496,0.784503 0.38926,-0.538972 0.74857,-0.784503 0.3653,-0.245532 0.84439,-0.245532 0.58688,0 1.01207,0.443155 0.42519,0.437166 0.42519,1.042012 v 3.593144 h -1.03603 v -3.323659 q 0,-0.820434 -0.80845,-0.820434 -0.46112,0 -0.78451,0.4192 -0.31739,0.4192 -0.31739,1.036023 v 2.68887 h -1.04201 v -3.185921 q 0,-0.970149 -0.79648,-0.970149 -0.4731,0 -0.80247,0.395246 -0.32937,0.395245 -0.32937,0.976137 v 2.784687 z"
         style="font-style:normal;font-variant:normal;font-weight:normal;font-stretch:normal;font-family:'Tw Cen MT';-inkscape-font-specification:'Tw Cen MT';fill:#ffffff;fill-opacity:1;stroke-width:0.306617"
         id="path893" />
      <path
         d="m 144.07714,40.128893 q 0,-1.012069 0.79648,-1.796572 0.80247,-0.790492 1.83849,-0.790492 1.06597,0 1.86245,0.778515 0.79648,0.772526 0.79648,1.808549 0,1.042012 -0.7845,1.838492 -0.77852,0.790492 -1.80256,0.790492 -1.09591,0 -1.90437,-0.784503 -0.80247,-0.784503 -0.80247,-1.844481 z m 4.28782,0 q 0,-0.6288 -0.47909,-1.08992 -0.47908,-0.467109 -1.13783,-0.467109 -0.6767,0 -1.16777,0.473097 -0.48507,0.467109 -0.48507,1.119864 0,0.622811 0.49106,1.08992 0.49705,0.467109 1.16178,0.467109 0.64677,0 1.13184,-0.479086 0.48508,-0.479086 0.48508,-1.113875 z"
         style="font-style:normal;font-variant:normal;font-weight:normal;font-stretch:normal;font-family:'Tw Cen MT';-inkscape-font-specification:'Tw Cen MT';fill:#ffffff;fill-opacity:1;stroke-width:0.306617"
         id="path895" />
      <path
         d="m 151.64071,37.679566 v 1.018058 0 q 0.34734,-0.610835 0.67671,-0.88032 0.33536,-0.275475 0.86834,-0.275475 0.14972,0 0.43118,0.07186 l -0.31739,1.042012 q -0.29943,-0.05989 -0.39525,-0.05989 -0.52699,0 -0.88631,0.371292 -0.35333,0.365303 -0.35333,0.916252 v 2.736778 h -1.04201 v -4.940574 z"
         style="font-style:normal;font-variant:normal;font-weight:normal;font-stretch:normal;font-family:'Tw Cen MT';-inkscape-font-specification:'Tw Cen MT';fill:#ffffff;fill-opacity:1;stroke-width:0.306617"
         id="path897" />
      <path
         d="m 159.50371,40.35047 h -4.21596 q 0.13774,0.760549 0.62281,1.113875 0.49107,0.347338 1.06597,0.347338 0.88631,0 1.48516,-0.736595 l 0.76055,0.574903 q -0.85636,1.107886 -2.29362,1.107886 -1.1019,0 -1.84448,-0.75456 -0.74258,-0.75456 -0.74258,-1.874424 0,-1.048 0.74857,-1.814538 0.75456,-0.772526 1.83849,-0.772526 1.06597,0 1.82651,0.784503 0.76055,0.778515 0.74858,2.024138 z m -4.10817,-0.832411 h 3.01825 q -0.50304,-1.018058 -1.48517,-1.018058 -1.07196,0 -1.53308,1.018058 z"
         style="font-style:normal;font-variant:normal;font-weight:normal;font-stretch:normal;font-family:'Tw Cen MT';-inkscape-font-specification:'Tw Cen MT';fill:#ffffff;fill-opacity:1;stroke-width:0.306617"
         id="path899" />
    </g>
  </g>
</svg>
