<?xml version="1.0" encoding="UTF-8" standalone="no"?>
<!-- Generator: Adobe Illustrator 16.0.0, SVG Export Plug-In . SVG Version: 6.00 Build 0)  -->

<svg
   version="1.1"
   id="Layer_1"
   x="0px"
   y="0px"
   width="160"
   height="13.5"
   viewBox="0 0 176.84211 13.5"
   enable-background="new 0 0 210 13.5"
   xml:space="preserve"
   sodipodi:docname="logo.svg"
   inkscape:version="1.2.2 (732a01da63, 2022-12-09)"
   xmlns:inkscape="http://www.inkscape.org/namespaces/inkscape"
   xmlns:sodipodi="http://sodipodi.sourceforge.net/DTD/sodipodi-0.dtd"
   xmlns="http://www.w3.org/2000/svg"
   xmlns:svg="http://www.w3.org/2000/svg"><defs
   id="defs39" /><sodipodi:namedview
   id="namedview37"
   pagecolor="#505050"
   bordercolor="#ffffff"
   borderopacity="1"
   inkscape:showpageshadow="0"
   inkscape:pageopacity="0"
   inkscape:pagecheckerboard="1"
   inkscape:deskcolor="#505050"
   showgrid="false"
   inkscape:zoom="6.8947368"
   inkscape:cx="89.706107"
   inkscape:cy="6.889313"
   inkscape:window-width="1920"
   inkscape:window-height="991"
   inkscape:window-x="-9"
   inkscape:window-y="-9"
   inkscape:window-maximized="1"
   inkscape:current-layer="Layer_1" />
<g
   id="g34"
   transform="translate(2.5648856)">
	<g
   id="g10">
		<path
   fill="#006838"
   d="M 11.333,3.781 7.087,9.439 H 6.603 L 2.451,3.762 v 9.477 H -0.007 V 0.206 H 2.826 L 6.9,5.811 10.98,0.206 h 2.813 V 13.239 H 11.335 V 3.781 Z"
   id="path2" />
		<path
   fill="#006838"
   d="m 26.759,13.221 h -9.755 c 0,-4.339 0,-8.694 0,-13.033 h 9.755 v 2.383 h -7.317 v 2.998 h 7.055 v 2.289 h -7.055 v 2.944 h 7.317 z"
   id="path4" />
		<path
   fill="#006838"
   d="M 41.159,13.221 H 38.236 L 34.437,8.866 h -2.364 v 4.355 H 29.615 V 0.168 c 2.066,0 4.134,0.019 6.202,0.019 3.071,0.018 4.69,2.066 4.69,4.319 0,1.789 -0.819,3.596 -3.295,4.098 l 3.948,4.451 z M 32.073,2.478 v 4.17 h 3.744 c 1.563,0 2.234,-1.042 2.234,-2.085 0,-1.042 -0.69,-2.085 -2.234,-2.085 z"
   id="path6" />
		<path
   fill="#006838"
   d="m 54.927,0.206 v 7.466 c 0,3.855 -2.366,5.828 -5.643,5.828 -3.127,0 -5.792,-1.898 -5.792,-5.828 V 0.206 h 2.44 v 7.466 c 0,2.346 1.341,3.594 3.372,3.594 2.028,0 3.183,-1.359 3.183,-3.594 V 0.206 Z"
   id="path8" />
	</g>
	<g
   id="g32">
		<path
   fill="#94c83d"
   d="M 60.409,13.221 V 0.188 h 0.985 v 13.033 z"
   id="path12" />
		<path
   fill="#94c83d"
   d="m 65.646,0.188 8.768,10.78 V 0.188 h 0.987 V 13.221 H 75.01 L 66.222,2.459 V 13.221 H 65.215 V 0.188 Z"
   id="path14" />
		<path
   fill="#94c83d"
   d="m 90.174,6.555 c 0.076,3.314 -2.048,6.666 -6.609,6.666 -1.471,0 -2.944,0 -4.414,0 V 0.188 c 1.469,0 2.942,0 4.414,0 4.413,0 6.535,3.165 6.609,6.367 z M 80.154,1.136 v 11.115 h 3.411 c 3.872,0 5.658,-2.901 5.604,-5.696 C 89.112,3.837 87.325,1.137 83.565,1.137 h -3.411 z"
   id="path16" />
		<path
   fill="#94c83d"
   d="m 103.363,0.188 v 8.098 c 0,6.817 -9.979,6.835 -9.979,0 V 0.188 h 0.989 v 8.098 c 0,5.604 8.006,5.586 8.006,0 V 0.188 Z"
   id="path18" />
		<path
   fill="#94c83d"
   d="m 115.495,2.702 c -0.95,-1.528 -2.479,-1.752 -3.948,-1.77 -1.527,0 -3.949,0.558 -3.949,2.645 0,1.655 1.786,2.047 3.984,2.458 2.516,0.483 5.121,0.93 5.121,3.742 -0.02,2.94 -2.979,3.649 -5.156,3.649 -2.031,0 -4.342,-0.839 -5.346,-2.829 l 0.895,-0.449 c 0.801,1.582 2.852,2.365 4.451,2.365 1.599,0 4.15,-0.447 4.15,-2.757 0.021,-1.954 -2.141,-2.383 -4.282,-2.792 -2.382,-0.466 -4.819,-0.95 -4.819,-3.352 C 106.535,0.858 109.402,0 111.547,0 c 1.861,0 3.48,0.299 4.768,2.215 z"
   id="path20" />
		<path
   fill="#94c83d"
   d="m 123.471,1.099 h -4.713 V 0.206 h 10.43 V 1.1 h -4.713 v 12.123 h -1.004 z"
   id="path22" />
		<path
   fill="#94c83d"
   d="m 142.434,13.221 h -1.326 l -4.504,-4.936 h -3.556 v 4.936 H 132.04 V 0.188 c 1.919,0 3.817,0 5.735,0 2.83,0 4.264,2.028 4.283,4.059 0.019,2.123 -1.377,3.983 -4.229,3.983 z m -9.386,-5.884 h 4.619 c 2.269,0 3.274,-1.284 3.293,-3.109 0.019,-1.526 -1.024,-3.111 -3.185,-3.111 h -4.729 z"
   id="path24" />
		<path
   fill="#94c83d"
   d="M 145.063,13.221 V 0.188 h 0.985 v 13.033 z"
   id="path26" />
		<path
   fill="#94c83d"
   d="m 150.838,6.202 h 7.633 v 0.911 h -7.633 v 5.138 h 8.229 v 0.97 h -9.215 V 0.188 h 8.991 v 0.949 h -8.006 z"
   id="path28" />
		<path
   fill="#94c83d"
   d="m 171.066,2.702 c -0.949,-1.528 -2.479,-1.752 -3.948,-1.77 -1.527,0 -3.945,0.558 -3.945,2.645 0,1.655 1.787,2.047 3.983,2.458 2.514,0.483 5.119,0.93 5.119,3.742 -0.02,2.94 -2.979,3.649 -5.157,3.649 -2.028,0 -4.339,-0.839 -5.343,-2.829 l 0.893,-0.449 c 0.803,1.582 2.85,2.365 4.45,2.365 1.604,0 4.153,-0.447 4.153,-2.757 0.019,-1.954 -2.145,-2.383 -4.283,-2.792 -2.383,-0.466 -4.822,-0.95 -4.822,-3.352 C 162.109,0.858 164.977,0 167.118,0 c 1.86,0 3.481,0.299 4.767,2.215 z"
   id="path30" />
	</g>
</g>
</svg>
