<?xml version="1.0" encoding="UTF-8" standalone="no"?>
<svg
   xmlns:dc="http://purl.org/dc/elements/1.1/"
   xmlns:cc="http://creativecommons.org/ns#"
   xmlns:rdf="http://www.w3.org/1999/02/22-rdf-syntax-ns#"
   xmlns:svg="http://www.w3.org/2000/svg"
   xmlns="http://www.w3.org/2000/svg"
   xmlns:sodipodi="http://sodipodi.sourceforge.net/DTD/sodipodi-0.dtd"
   xmlns:inkscape="http://www.inkscape.org/namespaces/inkscape"
   version="1.0"
   width="300"
   height="300"
   viewBox="0 0 225.00002 225"
   preserveAspectRatio="xMidYMid meet"
   id="svg6"
   sodipodi:docname="square-dark.svg"
   inkscape:version="1.0.2 (e86c870879, 2021-01-15, custom)"
   inkscape:export-filename="C:\Users\sid\Desktop\Projects\Oxvsys Company Projects\Images\logo-dark.png"
   inkscape:export-xdpi="97.540001"
   inkscape:export-ydpi="97.540001">
  <metadata
     id="metadata12">
    <rdf:RDF>
      <cc:Work
         rdf:about="">
        <dc:format>image/svg+xml</dc:format>
        <dc:type
           rdf:resource="http://purl.org/dc/dcmitype/StillImage" />
        <dc:title></dc:title>
      </cc:Work>
    </rdf:RDF>
  </metadata>
  <defs
     id="defs10" />
  <sodipodi:namedview
     pagecolor="#ffffff"
     bordercolor="#666666"
     borderopacity="1"
     objecttolerance="10"
     gridtolerance="10"
     guidetolerance="10"
     inkscape:pageopacity="0"
     inkscape:pageshadow="2"
     inkscape:window-width="1920"
     inkscape:window-height="1001"
     id="namedview8"
     showgrid="false"
     units="px"
     inkscape:zoom="1.401828"
     inkscape:cx="186.47959"
     inkscape:cy="68.930223"
     inkscape:window-x="-9"
     inkscape:window-y="-9"
     inkscape:window-maximized="1"
     inkscape:current-layer="g972"
     inkscape:document-rotation="0"
     width="300px">
    <inkscape:grid
       type="xygrid"
       id="grid837" />
  </sodipodi:namedview>
  <g
     id="g972">
    <g
       aria-label="OXVSYS"
       id="text841"
       style="font-style:normal;font-weight:normal;font-size:27.5509px;line-height:1.25;font-family:sans-serif;fill:#03254c;fill-opacity:1;stroke:none;stroke-width:0.688774" />
    <g
       id="g863"
       transform="matrix(0.66489269,0,0,0.66489269,44.912542,66.748089)">
      <path
         d="m 24.575823,175.83321 q 0,-6.16519 4.646221,-10.5657 4.646219,-4.4005 11.168798,-4.4005 6.366213,0 10.967758,4.44519 4.601544,4.42284 4.601544,10.52101 0,6.45555 -4.556869,10.92307 -4.534531,4.44519 -11.14646,4.44519 -6.522578,0 -11.101784,-4.48986 -4.579208,-4.48985 -4.579208,-10.8784 z m 27.251866,0.17869 q 0,-4.71323 -3.395314,-7.92984 -3.395314,-3.23896 -8.354261,-3.23896 -4.713232,0 -8.086208,3.28362 -3.350641,3.28363 -3.350641,7.88518 0,4.66856 3.439991,7.9075 3.462327,3.21661 8.465949,3.21661 4.601544,0 7.929845,-3.28362 3.350639,-3.30596 3.350639,-7.84049 z"
         style="font-style:normal;font-variant:normal;font-weight:normal;font-stretch:normal;font-size:27.5509px;line-height:1.25;font-family:'Tw Cen MT';-inkscape-font-specification:'Tw Cen MT';fill:#03254c;fill-opacity:1;stroke:none;stroke-width:1.14369"
         id="path902" />
      <path
         d="m 59.020396,161.78285 h 4.288818 l 6.366219,10.38698 6.276852,-10.38698 h 4.333507 l -8.465947,13.91632 8.711646,14.54177 h -4.31114 l -6.544918,-10.92308 -6.63427,10.92308 H 58.70767 l 8.778675,-14.54177 z"
         style="font-style:normal;font-variant:normal;font-weight:normal;font-stretch:normal;font-size:27.5509px;line-height:1.25;font-family:'Tw Cen MT';-inkscape-font-specification:'Tw Cen MT';fill:#03254c;fill-opacity:1;stroke:none;stroke-width:1.14369"
         id="path904" />
      <path
         d="m 82.988636,161.82752 h 4.110107 l 8.912698,20.12617 8.979709,-20.12617 h 4.15481 l -13.179186,29.37395 z"
         style="font-style:normal;font-variant:normal;font-weight:normal;font-stretch:normal;font-size:27.5509px;line-height:1.25;font-family:'Tw Cen MT';-inkscape-font-specification:'Tw Cen MT';fill:#03254c;fill-opacity:1;stroke:none;stroke-width:1.14369"
         id="path906" />
      <path
         d="m 130.36668,164.93245 -3.14961,2.52414 q -1.2509,-1.29556 -2.27843,-1.92103 -1.0052,-0.64778 -2.92623,-0.64778 -2.09972,0 -3.41765,0.96051 -1.29558,0.93819 -1.29558,2.4348 0,1.29558 1.13923,2.30078 1.13921,0.98284 3.88674,2.16674 2.74751,1.16155 4.26647,2.18908 1.5413,1.0052 2.52415,2.23376 0.98286,1.22857 1.45194,2.59116 0.49143,1.3626 0.49143,2.88155 0,3.55169 -2.59116,6.0535 -2.56882,2.50181 -6.23218,2.50181 -3.57403,0 -6.32155,-1.94338 -2.72518,-1.96571 -4.19946,-5.87479 l 3.88674,-1.09454 q 2.12206,4.80259 6.50023,4.80259 2.12208,0 3.52935,-1.27325 1.40726,-1.27325 1.40726,-3.21661 0,-1.16156 -0.73713,-2.32311 -0.73715,-1.1839 -1.8317,-1.94336 -1.09453,-0.75949 -3.50699,-1.72 -2.39013,-0.98286 -3.68571,-1.78701 -1.27324,-0.8265 -2.21143,-1.94338 -0.93816,-1.13922 -1.38493,-2.2561 -0.42441,-1.11688 -0.42441,-2.39011 0,-3.06026 2.45714,-5.20467 2.45713,-2.16674 5.96414,-2.16674 2.32311,0 4.71324,1.00519 2.39011,1.0052 3.97609,3.06025 z"
         style="font-style:normal;font-variant:normal;font-weight:normal;font-stretch:normal;font-size:27.5509px;line-height:1.25;font-family:'Tw Cen MT';-inkscape-font-specification:'Tw Cen MT';fill:#03254c;fill-opacity:1;stroke:none;stroke-width:1.14369"
         id="path908" />
      <path
         d="m 134.16405,161.78285 h 4.31116 l 6.99167,11.43684 6.90232,-11.43684 h 4.31115 l -9.33711,15.41294 v 13.04515 h -3.88674 v -13.00047 z"
         style="font-style:normal;font-variant:normal;font-weight:normal;font-stretch:normal;font-size:27.5509px;line-height:1.25;font-family:'Tw Cen MT';-inkscape-font-specification:'Tw Cen MT';fill:#03254c;fill-opacity:1;stroke:none;stroke-width:1.14369"
         id="path910" />
      <path
         d="m 178.03509,164.93245 -3.1496,2.52414 q -1.25091,-1.29556 -2.27842,-1.92103 -1.0052,-0.64778 -2.92623,-0.64778 -2.09975,0 -3.41766,0.96051 -1.29558,0.93819 -1.29558,2.4348 0,1.29558 1.13921,2.30078 1.13922,0.98284 3.88674,2.16674 2.74753,1.16155 4.2665,2.18908 1.54129,1.0052 2.52414,2.23376 0.98285,1.22857 1.45195,2.59116 0.49141,1.3626 0.49141,2.88155 0,3.55169 -2.59116,6.0535 -2.56881,2.50181 -6.23218,2.50181 -3.57401,0 -6.32154,-1.94338 -2.72519,-1.96571 -4.19947,-5.87479 l 3.88674,-1.09454 q 2.12208,4.80259 6.50025,4.80259 2.12206,0 3.52934,-1.27325 1.40726,-1.27325 1.40726,-3.21661 0,-1.16156 -0.73714,-2.32311 -0.73714,-1.1839 -1.83168,-1.94336 -1.09455,-0.75949 -3.50701,-1.72 -2.39011,-0.98286 -3.68569,-1.78701 -1.27325,-0.8265 -2.21143,-1.94338 -0.93818,-1.13922 -1.38493,-2.2561 -0.42442,-1.11688 -0.42442,-2.39011 0,-3.06026 2.45715,-5.20467 2.45712,-2.16674 5.96413,-2.16674 2.32311,0 4.71323,1.00519 2.39012,1.0052 3.97609,3.06025 z"
         style="font-style:normal;font-variant:normal;font-weight:normal;font-stretch:normal;font-size:27.5509px;line-height:1.25;font-family:'Tw Cen MT';-inkscape-font-specification:'Tw Cen MT';fill:#03254c;fill-opacity:1;stroke:none;stroke-width:1.14369"
         id="path912" />
    </g>
    <g
       aria-label="automation and more"
       id="text841-2"
       style="font-style:normal;font-weight:normal;font-size:12.2646px;line-height:1.25;font-family:sans-serif;fill:#03254c;fill-opacity:1;stroke:none;stroke-width:0.306617"
       transform="matrix(1.6604683,0,0,1.6604683,-63.714671,142.45603)">
      <path
         d="m 60.602404,37.679566 h 1.042012 v 4.940574 h -1.042012 v -0.982126 q -0.760549,1.119863 -1.886401,1.119863 -0.976137,0 -1.670812,-0.766537 -0.688686,-0.766538 -0.688686,-1.862447 0,-1.036023 0.694674,-1.808549 0.700664,-0.778515 1.64087,-0.778515 0.580891,0 1.101897,0.317395 0.521006,0.317394 0.808458,0.826423 z m 0.137737,2.485259 q 0,-0.676709 -0.485074,-1.155795 -0.485075,-0.485075 -1.161784,-0.485075 -0.658743,0 -1.149806,0.479086 -0.491063,0.479086 -0.491063,1.125852 0,0.700663 0.479086,1.191726 0.479086,0.491064 1.161783,0.491064 0.676709,0 1.161784,-0.485075 0.485074,-0.491063 0.485074,-1.161783 z"
         style="font-style:normal;font-variant:normal;font-weight:normal;font-stretch:normal;font-family:'Tw Cen MT';-inkscape-font-specification:'Tw Cen MT';fill:#03254c;fill-opacity:1;stroke-width:0.306617"
         id="path867" />
      <path
         d="m 63.027777,37.679566 h 1.042011 v 2.784687 q 0,1.287544 1.131841,1.287544 0.50304,0 0.79648,-0.341349 0.29344,-0.347337 0.29344,-0.946195 v -2.784687 h 1.030035 v 2.952367 q 0,0.928229 -0.604846,1.527087 -0.604846,0.598857 -1.545052,0.598857 -0.958172,0 -1.551041,-0.598857 -0.592868,-0.598858 -0.592868,-1.563018 z"
         style="font-style:normal;font-variant:normal;font-weight:normal;font-stretch:normal;font-family:'Tw Cen MT';-inkscape-font-specification:'Tw Cen MT';fill:#03254c;fill-opacity:1;stroke-width:0.306617"
         id="path869" />
      <path
         d="m 68.914545,36.242309 h 1.042012 v 1.437257 h 1.030034 v 0.952184 h -1.030034 v 3.98839 H 68.914545 V 38.63175 H 68.09411 v -0.964161 h 0.820435 z"
         style="font-style:normal;font-variant:normal;font-weight:normal;font-stretch:normal;font-family:'Tw Cen MT';-inkscape-font-specification:'Tw Cen MT';fill:#03254c;fill-opacity:1;stroke-width:0.306617"
         id="path871" />
      <path
         d="m 71.627369,40.128893 q 0,-1.012069 0.796481,-1.796572 0.802468,-0.790492 1.838492,-0.790492 1.065966,0 1.862446,0.778515 0.796481,0.772526 0.796481,1.808549 0,1.042012 -0.784504,1.838492 -0.778514,0.790492 -1.80256,0.790492 -1.095909,0 -1.904367,-0.784503 -0.802469,-0.784503 -0.802469,-1.844481 z m 4.287819,0 q 0,-0.6288 -0.479086,-1.08992 -0.479086,-0.467109 -1.137829,-0.467109 -0.676709,0 -1.167772,0.473097 -0.485074,0.467109 -0.485074,1.119864 0,0.622811 0.491063,1.08992 0.497052,0.467109 1.161783,0.467109 0.646766,0 1.131841,-0.479086 0.485074,-0.479086 0.485074,-1.113875 z"
         style="font-style:normal;font-variant:normal;font-weight:normal;font-stretch:normal;font-family:'Tw Cen MT';-inkscape-font-specification:'Tw Cen MT';fill:#03254c;fill-opacity:1;stroke-width:0.306617"
         id="path873" />
      <path
         d="m 77.939327,42.62014 v -4.940574 h 1.030035 v 0.760549 q 0.365303,-0.467108 0.694674,-0.682697 0.33536,-0.215589 0.766538,-0.215589 0.562926,0 0.88032,0.245532 0.323383,0.245531 0.54496,0.784503 0.389258,-0.538972 0.748572,-0.784503 0.365303,-0.245532 0.844389,-0.245532 0.58688,0 1.012069,0.443155 0.425189,0.437166 0.425189,1.042012 v 3.593144 h -1.036024 v -3.323659 q 0,-0.820434 -0.808457,-0.820434 -0.46112,0 -0.784503,0.4192 -0.317395,0.4192 -0.317395,1.036023 v 2.68887 h -1.042012 v -3.185921 q 0,-0.970149 -0.79648,-0.970149 -0.473097,0 -0.802469,0.395246 -0.329371,0.395245 -0.329371,0.976137 v 2.784687 z"
         style="font-style:normal;font-variant:normal;font-weight:normal;font-stretch:normal;font-family:'Tw Cen MT';-inkscape-font-specification:'Tw Cen MT';fill:#03254c;fill-opacity:1;stroke-width:0.306617"
         id="path875" />
      <path
         d="m 90.377594,37.679566 h 1.042012 v 4.940574 h -1.042012 v -0.982126 q -0.760549,1.119863 -1.886401,1.119863 -0.976137,0 -1.670812,-0.766537 -0.688686,-0.766538 -0.688686,-1.862447 0,-1.036023 0.694675,-1.808549 0.700663,-0.778515 1.640869,-0.778515 0.580892,0 1.101898,0.317395 0.521006,0.317394 0.808457,0.826423 z m 0.137737,2.485259 q 0,-0.676709 -0.485074,-1.155795 -0.485075,-0.485075 -1.161783,-0.485075 -0.658744,0 -1.149807,0.479086 -0.491063,0.479086 -0.491063,1.125852 0,0.700663 0.479086,1.191726 0.479086,0.491064 1.161784,0.491064 0.676708,0 1.161783,-0.485075 0.485074,-0.491063 0.485074,-1.161783 z"
         style="font-style:normal;font-variant:normal;font-weight:normal;font-stretch:normal;font-family:'Tw Cen MT';-inkscape-font-specification:'Tw Cen MT';fill:#03254c;fill-opacity:1;stroke-width:0.306617"
         id="path877" />
      <path
         d="m 93.317983,36.242309 h 1.042012 v 1.437257 h 1.030035 v 0.952184 h -1.030035 v 3.98839 h -1.042012 v -3.98839 h -0.820434 v -0.964161 h 0.820434 z"
         style="font-style:normal;font-variant:normal;font-weight:normal;font-stretch:normal;font-family:'Tw Cen MT';-inkscape-font-specification:'Tw Cen MT';fill:#03254c;fill-opacity:1;stroke-width:0.306617"
         id="path879" />
      <path
         d="m 96.114647,36.056663 q 0,-0.323383 0.239543,-0.556938 0.239543,-0.239543 0.568914,-0.239543 0.323383,0 0.556938,0.239543 0.239543,0.233555 0.239543,0.556938 0,0.329371 -0.239543,0.562926 -0.233555,0.233554 -0.556938,0.233554 -0.329371,0 -0.568914,-0.233554 -0.239543,-0.233555 -0.239543,-0.562926 z m 0.29344,1.622903 h 1.030035 v 4.940574 h -1.030035 z"
         style="font-style:normal;font-variant:normal;font-weight:normal;font-stretch:normal;font-family:'Tw Cen MT';-inkscape-font-specification:'Tw Cen MT';fill:#03254c;fill-opacity:1;stroke-width:0.306617"
         id="path881" />
      <path
         d="m 98.71968,40.128893 q 0,-1.012069 0.79648,-1.796572 0.80247,-0.790492 1.83849,-0.790492 1.06597,0 1.86245,0.778515 0.79648,0.772526 0.79648,1.808549 0,1.042012 -0.7845,1.838492 -0.77852,0.790492 -1.80256,0.790492 -1.09591,0 -1.904371,-0.784503 -0.802469,-0.784503 -0.802469,-1.844481 z m 4.28782,0 q 0,-0.6288 -0.47909,-1.08992 -0.47908,-0.467109 -1.13783,-0.467109 -0.6767,0 -1.16777,0.473097 -0.485072,0.467109 -0.485072,1.119864 0,0.622811 0.491062,1.08992 0.49705,0.467109 1.16178,0.467109 0.64677,0 1.13184,-0.479086 0.48508,-0.479086 0.48508,-1.113875 z"
         style="font-style:normal;font-variant:normal;font-weight:normal;font-stretch:normal;font-family:'Tw Cen MT';-inkscape-font-specification:'Tw Cen MT';fill:#03254c;fill-opacity:1;stroke-width:0.306617"
         id="path883" />
      <path
         d="m 104.93582,42.62014 v -4.940574 h 1.01806 v 0.820435 q 0.44914,-0.497052 0.81444,-0.724617 0.3653,-0.233555 0.81445,-0.233555 0.67072,0 1.14382,0.443155 0.47908,0.443154 0.47908,1.065966 v 3.56919 h -1.04201 v -3.263773 q 0,-0.401234 -0.2635,-0.664732 -0.25751,-0.263497 -0.65874,-0.263497 -0.52101,0 -0.89829,0.443155 -0.37728,0.437166 -0.37728,1.059977 v 2.68887 z"
         style="font-style:normal;font-variant:normal;font-weight:normal;font-stretch:normal;font-family:'Tw Cen MT';-inkscape-font-specification:'Tw Cen MT';fill:#03254c;fill-opacity:1;stroke-width:0.306617"
         id="path885" />
      <path
         d="m 118.04481,37.679566 h 1.04201 v 4.940574 h -1.04201 v -0.982126 q -0.76055,1.119863 -1.88641,1.119863 -0.97613,0 -1.67081,-0.766537 -0.68868,-0.766538 -0.68868,-1.862447 0,-1.036023 0.69467,-1.808549 0.70066,-0.778515 1.64087,-0.778515 0.58089,0 1.1019,0.317395 0.521,0.317394 0.80846,0.826423 z m 0.13773,2.485259 q 0,-0.676709 -0.48507,-1.155795 -0.48508,-0.485075 -1.16178,-0.485075 -0.65875,0 -1.14981,0.479086 -0.49106,0.479086 -0.49106,1.125852 0,0.700663 0.47908,1.191726 0.47909,0.491064 1.16179,0.491064 0.6767,0 1.16178,-0.485075 0.48507,-0.491063 0.48507,-1.161783 z"
         style="font-style:normal;font-variant:normal;font-weight:normal;font-stretch:normal;font-family:'Tw Cen MT';-inkscape-font-specification:'Tw Cen MT';fill:#03254c;fill-opacity:1;stroke-width:0.306617"
         id="path887" />
      <path
         d="m 120.45821,42.62014 v -4.940574 h 1.01805 v 0.820435 q 0.44915,-0.497052 0.81445,-0.724617 0.3653,-0.233555 0.81445,-0.233555 0.67072,0 1.14381,0.443155 0.47909,0.443154 0.47909,1.065966 v 3.56919 h -1.04201 v -3.263773 q 0,-0.401234 -0.2635,-0.664732 -0.25751,-0.263497 -0.65874,-0.263497 -0.52101,0 -0.89829,0.443155 -0.37728,0.437166 -0.37728,1.059977 v 2.68887 z"
         style="font-style:normal;font-variant:normal;font-weight:normal;font-stretch:normal;font-family:'Tw Cen MT';-inkscape-font-specification:'Tw Cen MT';fill:#03254c;fill-opacity:1;stroke-width:0.306617"
         id="path889" />
      <path
         d="m 130.1597,34.846971 h 1.03003 v 7.773169 h -1.01806 v -1.030035 q -0.73659,1.167772 -1.92832,1.167772 -0.96416,0 -1.65285,-0.772526 -0.68868,-0.772526 -0.68868,-1.856458 0,-1.059977 0.70066,-1.820526 0.70067,-0.766538 1.67081,-0.766538 0.5809,0 1.08394,0.323383 0.50304,0.323383 0.80247,0.844389 z m 0.11977,5.293899 q 0,-0.664731 -0.48508,-1.149806 -0.48507,-0.491063 -1.15579,-0.491063 -0.69468,0 -1.17975,0.479086 -0.47909,0.473097 -0.47909,1.161783 0,0.658744 0.49107,1.155795 0.49106,0.491063 1.14381,0.491063 0.69468,0 1.17975,-0.479086 0.48508,-0.479086 0.48508,-1.167772 z"
         style="font-style:normal;font-variant:normal;font-weight:normal;font-stretch:normal;font-family:'Tw Cen MT';-inkscape-font-specification:'Tw Cen MT';fill:#03254c;fill-opacity:1;stroke-width:0.306617"
         id="path891" />
      <path
         d="m 136.0764,42.62014 v -4.940574 h 1.03004 v 0.760549 q 0.3653,-0.467108 0.69467,-0.682697 0.33536,-0.215589 0.76654,-0.215589 0.56292,0 0.88032,0.245532 0.32338,0.245531 0.54496,0.784503 0.38926,-0.538972 0.74857,-0.784503 0.3653,-0.245532 0.84439,-0.245532 0.58688,0 1.01207,0.443155 0.42519,0.437166 0.42519,1.042012 v 3.593144 h -1.03603 v -3.323659 q 0,-0.820434 -0.80845,-0.820434 -0.46112,0 -0.78451,0.4192 -0.31739,0.4192 -0.31739,1.036023 v 2.68887 h -1.04201 v -3.185921 q 0,-0.970149 -0.79648,-0.970149 -0.4731,0 -0.80247,0.395246 -0.32937,0.395245 -0.32937,0.976137 v 2.784687 z"
         style="font-style:normal;font-variant:normal;font-weight:normal;font-stretch:normal;font-family:'Tw Cen MT';-inkscape-font-specification:'Tw Cen MT';fill:#03254c;fill-opacity:1;stroke-width:0.306617"
         id="path893" />
      <path
         d="m 144.07714,40.128893 q 0,-1.012069 0.79648,-1.796572 0.80247,-0.790492 1.83849,-0.790492 1.06597,0 1.86245,0.778515 0.79648,0.772526 0.79648,1.808549 0,1.042012 -0.7845,1.838492 -0.77852,0.790492 -1.80256,0.790492 -1.09591,0 -1.90437,-0.784503 -0.80247,-0.784503 -0.80247,-1.844481 z m 4.28782,0 q 0,-0.6288 -0.47909,-1.08992 -0.47908,-0.467109 -1.13783,-0.467109 -0.6767,0 -1.16777,0.473097 -0.48507,0.467109 -0.48507,1.119864 0,0.622811 0.49106,1.08992 0.49705,0.467109 1.16178,0.467109 0.64677,0 1.13184,-0.479086 0.48508,-0.479086 0.48508,-1.113875 z"
         style="font-style:normal;font-variant:normal;font-weight:normal;font-stretch:normal;font-family:'Tw Cen MT';-inkscape-font-specification:'Tw Cen MT';fill:#03254c;fill-opacity:1;stroke-width:0.306617"
         id="path895" />
      <path
         d="m 151.64071,37.679566 v 1.018058 0 q 0.34734,-0.610835 0.67671,-0.88032 0.33536,-0.275475 0.86834,-0.275475 0.14972,0 0.43118,0.07186 l -0.31739,1.042012 q -0.29943,-0.05989 -0.39525,-0.05989 -0.52699,0 -0.88631,0.371292 -0.35333,0.365303 -0.35333,0.916252 v 2.736778 h -1.04201 v -4.940574 z"
         style="font-style:normal;font-variant:normal;font-weight:normal;font-stretch:normal;font-family:'Tw Cen MT';-inkscape-font-specification:'Tw Cen MT';fill:#03254c;fill-opacity:1;stroke-width:0.306617"
         id="path897" />
      <path
         d="m 159.50371,40.35047 h -4.21596 q 0.13774,0.760549 0.62281,1.113875 0.49107,0.347338 1.06597,0.347338 0.88631,0 1.48516,-0.736595 l 0.76055,0.574903 q -0.85636,1.107886 -2.29362,1.107886 -1.1019,0 -1.84448,-0.75456 -0.74258,-0.75456 -0.74258,-1.874424 0,-1.048 0.74857,-1.814538 0.75456,-0.772526 1.83849,-0.772526 1.06597,0 1.82651,0.784503 0.76055,0.778515 0.74858,2.024138 z m -4.10817,-0.832411 h 3.01825 q -0.50304,-1.018058 -1.48517,-1.018058 -1.07196,0 -1.53308,1.018058 z"
         style="font-style:normal;font-variant:normal;font-weight:normal;font-stretch:normal;font-family:'Tw Cen MT';-inkscape-font-specification:'Tw Cen MT';fill:#03254c;fill-opacity:1;stroke-width:0.306617"
         id="path899" />
    </g>
    <path
       style="color:#000000;font-style:normal;font-variant:normal;font-weight:normal;font-stretch:normal;font-size:medium;line-height:normal;font-family:sans-serif;font-variant-ligatures:normal;font-variant-position:normal;font-variant-caps:normal;font-variant-numeric:normal;font-variant-alternates:normal;font-variant-east-asian:normal;font-feature-settings:normal;font-variation-settings:normal;text-indent:0;text-align:start;text-decoration:none;text-decoration-line:none;text-decoration-style:solid;text-decoration-color:#000000;letter-spacing:normal;word-spacing:normal;text-transform:none;writing-mode:lr-tb;direction:ltr;text-orientation:mixed;dominant-baseline:auto;baseline-shift:baseline;text-anchor:start;white-space:normal;shape-padding:0;shape-margin:0;inline-size:0;clip-rule:nonzero;display:inline;overflow:visible;visibility:visible;opacity:1;isolation:auto;mix-blend-mode:normal;color-interpolation:sRGB;color-interpolation-filters:linearRGB;solid-color:#000000;solid-opacity:1;vector-effect:none;fill:#03254c;fill-opacity:1;fill-rule:nonzero;stroke:none;stroke-width:0.0609851;stroke-linecap:butt;stroke-linejoin:miter;stroke-miterlimit:4;stroke-dasharray:none;stroke-dashoffset:0;stroke-opacity:1;color-rendering:auto;image-rendering:auto;shape-rendering:auto;text-rendering:auto;enable-background:accumulate;stop-color:#000000;stop-opacity:1"
       d="m 65.994292,10.662833 c -0.792799,1.64658 -4.573852,9.45261 -8.354913,17.197677 -3.781047,7.806034 -7.013244,14.697354 -7.257181,15.36817 -0.304946,0.975767 0.243948,1.341633 3.171206,2.378407 1.951511,0.670811 7.501125,2.622346 12.379904,4.390897 4.878779,1.707587 12.684831,4.451859 17.380657,6.098437 13.843533,4.756861 56.227925,20.368923 56.776795,20.856804 0.30491,0.304806 -3.23219,8.964776 -3.96401,9.757561 -0.24395,0.304807 -1.52462,0.06067 -2.80529,-0.426616 -1.34166,-0.487882 -10.55036,-3.781043 -20.42989,-7.379156 -9.87952,-3.537151 -25.491626,-9.147711 -34.700322,-12.50188 -9.208702,-3.35417 -16.953766,-5.97652 -17.197704,-5.915507 -0.3049,0.121816 2.744314,5.915507 6.708327,12.989716 5.976501,10.672363 7.562109,12.989762 9.269676,13.904516 1.158717,0.548893 8.842794,3.537151 17.197706,6.586369 12.989737,4.817822 15.063237,5.732582 15.063237,6.830312 0,2.0125 -2.01251,7.74507 -2.68334,7.74507 -0.3659,0 -5.73256,-1.7686 -11.892024,-3.96401 -6.15946,-2.19544 -11.343161,-3.84207 -11.52611,-3.7201 -0.121945,0.183 1.463629,3.41513 3.537109,7.19623 2.134469,3.78105 5.24469,9.51363 7.013247,12.68481 1.768562,3.17119 3.842039,7.01324 4.695824,8.53786 0.853785,1.52465 4.207944,7.6841 7.501124,13.72157 3.29317,6.03748 6.15945,11.22122 6.40339,11.46511 0.24396,0.24414 3.11023,-4.51287 6.4034,-10.67231 3.29318,-6.15945 7.01325,-12.92876 8.23294,-15.12418 1.28068,-2.19548 6.03749,-10.91631 10.67234,-19.45416 4.63483,-8.53786 9.81854,-17.868547 11.52611,-20.734835 6.28145,-10.367416 10.24544,-17.868494 9.75757,-18.35638 -0.3049,-0.304806 -4.08598,-1.646626 -8.4159,-2.988258 -4.32991,-1.341678 -7.989,-2.561383 -8.11097,-2.744319 -0.4269,-0.365945 0.97576,-1.402635 6.52538,-4.695796 15.61208,-9.269728 25.00373,-15.490139 25.00373,-16.465906 0,-0.609854 -1.03674,-3.354174 -2.37841,-6.159496 -1.28066,-2.80528 -4.57384,-9.757515 -7.19619,-15.42913 -2.68333,-5.732577 -5.12272,-11.038231 -5.36665,-11.8310651 -0.8538,-2.6833082 -1.34167,-0.121829 -1.76856,8.7818461 -0.24396,4.695797 -0.60985,9.086698 -0.73183,9.757561 -0.36589,1.52461 -0.42684,1.52461 -25.00373,9.086747 l -18.96626,5.854498 -10.00151,-3.049223 C 96.974547,38.533069 90.388196,36.520574 87.88782,35.666781 85.38745,34.873996 80.081774,33.227413 76.117763,32.007708 70.202247,30.178143 68.921562,29.568339 68.677629,28.470603 68.555632,27.738779 68.189743,22.738027 67.94581,17.371361 L 67.396941,7.6138018 Z"
       id="path2-6" />
  </g>
</svg>
